<?xml version="1.0" encoding="utf-8"?>
<!-- Generator: Adobe Illustrator 28.3.0, SVG Export Plug-In . SVG Version: 6.00 Build 0)  -->
<svg version="1.1" id="Layer_1" xmlns="http://www.w3.org/2000/svg" xmlns:xlink="http://www.w3.org/1999/xlink" x="0px" y="0px"
	 viewBox="0 0 612 792" style="enable-background:new 0 0 612 792;" xml:space="preserve">
<style type="text/css">
	.st0{fill:#DDDAAD;stroke:#010101;stroke-miterlimit:10;}
	.st1{fill:#FFFFFF;}
	.st2{fill:#010101;}
</style>
<polyline class="st0" points="133.81,559.83 230.31,164.33 392.31,164.33 478.81,559.83 "/>
<g>
	<ellipse class="st1" cx="306.31" cy="559.83" rx="172" ry="68.5"/>
	<path class="st2" d="M306.31,491.83c45.95,0,89.14,7.15,121.6,20.14c32.18,12.87,49.9,29.87,49.9,47.86s-17.72,34.99-49.9,47.86
		c-32.46,12.99-75.65,20.14-121.6,20.14s-89.14-7.15-121.6-20.14c-32.18-12.87-49.9-29.87-49.9-47.86s17.72-34.99,49.9-47.86
		C217.17,498.98,260.36,491.83,306.31,491.83 M306.31,490.83c-95.27,0-172.5,30.89-172.5,69s77.23,69,172.5,69s172.5-30.89,172.5-69
		S401.58,490.83,306.31,490.83L306.31,490.83z"/>
</g>
</svg>
