<?xml version="1.0" encoding="utf-8"?>
<!-- Generator: Adobe Illustrator 28.3.0, SVG Export Plug-In . SVG Version: 6.00 Build 0)  -->
<svg version="1.1" id="Layer_1" xmlns="http://www.w3.org/2000/svg" xmlns:xlink="http://www.w3.org/1999/xlink" x="0px" y="0px"
	 viewBox="0 0 612 792" style="enable-background:new 0 0 612 792;" xml:space="preserve">
<style type="text/css">
	.st0{fill:#DDDAAD;stroke:#010101;stroke-miterlimit:10;}
	.st1{fill:#FFFFFF;}
	.st2{fill:#010101;}
</style>
<polyline class="st0" points="222.81,560.32 45.31,250.82 45.31,164.32 558.93,538.41 "/>
<g>
	<ellipse class="st1" cx="395.31" cy="560.32" rx="172" ry="68.5"/>
	<path class="st2" d="M395.31,492.32c45.95,0,89.14,7.15,121.6,20.14c32.18,12.87,49.9,29.87,49.9,47.86s-17.72,34.99-49.9,47.86
		c-32.46,12.99-75.65,20.14-121.6,20.14s-89.14-7.15-121.6-20.14c-32.18-12.87-49.9-29.87-49.9-47.86s17.72-34.99,49.9-47.86
		C306.17,499.47,349.36,492.32,395.31,492.32 M395.31,491.32c-95.27,0-172.5,30.89-172.5,69s77.23,69,172.5,69s172.5-30.89,172.5-69
		S490.58,491.32,395.31,491.32L395.31,491.32z"/>
</g>
</svg>
