<?xml version="1.0" encoding="utf-8"?>
<!-- Generator: Adobe Illustrator 28.2.0, SVG Export Plug-In . SVG Version: 6.00 Build 0)  -->
<svg version="1.1" xmlns="http://www.w3.org/2000/svg" xmlns:xlink="http://www.w3.org/1999/xlink" x="0px" y="0px"
	 viewBox="0 0 1624 1023" style="enable-background:new 0 0 1624 1023;" xml:space="preserve">
<style type="text/css">
	.st0{fill:#DDD9AC;stroke:#000000;stroke-miterlimit:10;}
	.st1{fill:#FFFFFF;}
</style>
<g id="Layer_2">
	<polyline class="st0" points="177,396 -0.5,86.5 -0.5,0 513.12,374.09 	"/>
	<polyline class="st0" points="1448,396 1625.5,86.5 1625.5,0 1111.88,374.09 	"/>
	<polyline class="st0" points="640,396 736.5,0.5 898.5,0.5 985,396 	"/>
	<polyline class="st0" points="522.5,705 0,485 0,759 522.5,843 	"/>
	<polyline class="st0" points="1108,705 1630.5,485 1630.5,759 1108,843 	"/>
</g>
<g id="Layer_1">
	<g>
		<ellipse class="st1" cx="522.5" cy="774" rx="172" ry="68.5"/>
		<path d="M522.5,706c45.95,0,89.14,7.15,121.6,20.14C676.28,739.01,694,756.01,694,774c0,17.99-17.72,34.99-49.9,47.86
			C611.64,834.85,568.45,842,522.5,842s-89.14-7.15-121.6-20.14C368.72,808.99,351,791.99,351,774c0-17.99,17.72-34.99,49.9-47.86
			C433.36,713.15,476.55,706,522.5,706 M522.5,705c-95.27,0-172.5,30.89-172.5,69s77.23,69,172.5,69S695,812.11,695,774
			S617.77,705,522.5,705L522.5,705z"/>
	</g>
	<g>
		<ellipse class="st1" cx="812.5" cy="396" rx="172" ry="68.5"/>
		<path d="M812.5,328c45.95,0,89.14,7.15,121.6,20.14C966.28,361.01,984,378.01,984,396c0,17.99-17.72,34.99-49.9,47.86
			C901.64,456.85,858.45,464,812.5,464c-45.95,0-89.14-7.15-121.6-20.14C658.72,430.99,641,413.99,641,396
			c0-17.99,17.72-34.99,49.9-47.86C723.36,335.15,766.55,328,812.5,328 M812.5,327c-95.27,0-172.5,30.89-172.5,69s77.23,69,172.5,69
			S985,434.11,985,396S907.77,327,812.5,327L812.5,327z"/>
	</g>
	<g>
		<ellipse class="st1" cx="349.5" cy="396" rx="172" ry="68.5"/>
		<path d="M349.5,328c45.95,0,89.14,7.15,121.6,20.14C503.28,361.01,521,378.01,521,396s-17.72,34.99-49.9,47.86
			C438.64,456.85,395.45,464,349.5,464s-89.14-7.15-121.6-20.14C195.72,430.99,178,413.99,178,396s17.72-34.99,49.9-47.86
			C260.36,335.15,303.55,328,349.5,328 M349.5,327c-95.27,0-172.5,30.89-172.5,69s77.23,69,172.5,69S522,434.11,522,396
			S444.77,327,349.5,327L349.5,327z"/>
	</g>
	<g>
		<ellipse class="st1" cx="1102.5" cy="774" rx="172" ry="68.5"/>
		<g>
			<path d="M1102.5,706c45.95,0,89.14,7.15,121.6,20.14c32.18,12.87,49.9,29.87,49.9,47.86s-17.72,34.99-49.9,47.86
				c-32.47,12.99-75.65,20.14-121.6,20.14s-89.14-7.15-121.6-20.14C948.72,808.99,931,791.99,931,774s17.72-34.99,49.9-47.86
				C1013.36,713.15,1056.55,706,1102.5,706 M1102.5,705c-95.27,0-172.5,30.89-172.5,69s77.23,69,172.5,69s172.5-30.89,172.5-69
				S1197.77,705,1102.5,705L1102.5,705z"/>
		</g>
	</g>
	<g>
		<ellipse class="st1" cx="1275.5" cy="396" rx="172" ry="68.5"/>
		<path d="M1275.5,328c45.95,0,89.14,7.15,121.6,20.14c32.18,12.87,49.9,29.87,49.9,47.86c0,17.99-17.72,34.99-49.9,47.86
			c-32.47,12.99-75.65,20.14-121.6,20.14s-89.14-7.15-121.6-20.14c-32.18-12.87-49.9-29.87-49.9-47.86
			c0-17.99,17.72-34.99,49.9-47.86C1186.36,335.15,1229.55,328,1275.5,328 M1275.5,327c-95.27,0-172.5,30.89-172.5,69
			s77.23,69,172.5,69s172.5-30.89,172.5-69S1370.77,327,1275.5,327L1275.5,327z"/>
	</g>
</g>
</svg>
