<?xml version="1.0" encoding="utf-8"?>
<!-- Generator: Adobe Illustrator 28.3.0, SVG Export Plug-In . SVG Version: 6.00 Build 0)  -->
<svg version="1.1" id="Layer_1" xmlns="http://www.w3.org/2000/svg" xmlns:xlink="http://www.w3.org/1999/xlink" x="0px" y="0px"
	 viewBox="0 0 1624 1023" style="enable-background:new 0 0 1624 1023;" xml:space="preserve">
<style type="text/css">
	.st0{fill:#DDD9AC;stroke:#000000;stroke-miterlimit:10;}
	.st1{fill:#FFFFFF;}
</style>
<polyline class="st0" points="1108,705 1630.5,485 1630.5,759 1108,843 "/>
<polyline class="st0" points="177,396 -0.5,86.5 -0.5,0 513.1,374.1 "/>
<polyline class="st0" points="1448,396 1625.5,86.5 1625.5,0 1111.9,374.1 "/>
<polyline class="st0" points="640,396 736.5,0.5 898.5,0.5 985,396 "/>
<polyline class="st0" points="522.5,705 0,485 0,759 522.5,843 "/>
<g>
	<ellipse class="st1" cx="522.5" cy="774" rx="172" ry="68.5"/>
	<path d="M522.5,706c46,0,89.1,7.2,121.6,20.1C676.3,739,694,756,694,774s-17.7,35-49.9,47.9c-32.5,13-75.6,20.1-121.6,20.1
		s-89.1-7.2-121.6-20.1C368.7,809,351,792,351,774s17.7-35,49.9-47.9C433.4,713.2,476.5,706,522.5,706 M522.5,705
		c-95.3,0-172.5,30.9-172.5,69s77.2,69,172.5,69S695,812.1,695,774S617.8,705,522.5,705L522.5,705z"/>
</g>
<g>
	<ellipse class="st1" cx="812.5" cy="396" rx="172" ry="68.5"/>
	<path d="M812.5,328c46,0,89.1,7.1,121.6,20.1C966.3,361,984,378,984,396s-17.7,35-49.9,47.9c-32.5,13-75.6,20.1-121.6,20.1
		s-89.1-7.1-121.6-20.1C658.7,431,641,414,641,396s17.7-35,49.9-47.9C723.4,335.1,766.5,328,812.5,328 M812.5,327
		c-95.3,0-172.5,30.9-172.5,69s77.2,69,172.5,69S985,434.1,985,396S907.8,327,812.5,327L812.5,327z"/>
</g>
<g>
	<ellipse class="st1" cx="349.5" cy="396" rx="172" ry="68.5"/>
	<path d="M349.5,328c46,0,89.1,7.1,121.6,20.1C503.3,361,521,378,521,396s-17.7,35-49.9,47.9c-32.5,13-75.6,20.1-121.6,20.1
		s-89.1-7.1-121.6-20.1C195.7,431,178,414,178,396s17.7-35,49.9-47.9C260.4,335.1,303.5,328,349.5,328 M349.5,327
		c-95.3,0-172.5,30.9-172.5,69s77.2,69,172.5,69S522,434.1,522,396S444.8,327,349.5,327L349.5,327z"/>
</g>
<g>
	<ellipse class="st1" cx="1102.5" cy="774" rx="172" ry="68.5"/>
	<g>
		<path d="M1102.5,706c45.9,0,89.1,7.2,121.6,20.1C1256.3,739,1274,756,1274,774s-17.7,35-49.9,47.9c-32.5,13-75.7,20.1-121.6,20.1
			s-89.1-7.2-121.6-20.1C948.7,809,931,792,931,774s17.7-35,49.9-47.9C1013.4,713.2,1056.6,706,1102.5,706 M1102.5,705
			c-95.3,0-172.5,30.9-172.5,69s77.2,69,172.5,69s172.5-30.9,172.5-69S1197.8,705,1102.5,705L1102.5,705z"/>
	</g>
</g>
<g>
	<ellipse class="st1" cx="1275.5" cy="396" rx="172" ry="68.5"/>
	<path d="M1275.5,328c45.9,0,89.1,7.1,121.6,20.1C1429.3,361,1447,378,1447,396s-17.7,35-49.9,47.9c-32.5,13-75.7,20.1-121.6,20.1
		s-89.1-7.1-121.6-20.1C1121.7,431,1104,414,1104,396s17.7-35,49.9-47.9C1186.4,335.1,1229.6,328,1275.5,328 M1275.5,327
		c-95.3,0-172.5,30.9-172.5,69s77.2,69,172.5,69s172.5-30.9,172.5-69S1370.8,327,1275.5,327L1275.5,327z"/>
</g>
</svg>
